#!OML:ASF X:\für Bonn\!DataBase\2005_08_12_Daniel\c3d\Daniel.ASF
:FULLY-SPECIFIED
:DEGREES
183
root 1.14138 16.03 -18.4889 204.854 154.325 -166.516
lowerback 85.6705 -9.04629 12.1025
upperback 7.74765 2.26009 -2.94636
thorax -10.03 1.89656 -8.98119
lowerneck 3.15094 -7.8544 -4.23982
upperneck 6.46612 -10.3128 1.60574
head 1.8226 -5.08277 1.11802
rclavicle -6.99722e-014 -1.66979e-014
rhumerus 67.2509 -25.062 -99.3637
rradius 8.10198
rwrist 44.8756
rhand -51.6347 17.1167
rfingers 7.12502
rthumb -24.1573 -11.3822
lclavicle -6.99722e-014 -1.66979e-014
lhumerus -27.4624 -16.8121 94.3817
lradius 63.3183
lwrist 13.6723
lhand -11.1776 -11.6904
lfingers 7.12502
lthumb 14.8494 17.7575
rfemur -61.5625 -13.1256 4.22495
rtibia 70.3062
rfoot -26.7102 -10.6005
rtoes -17.7806
lfemur -64.1522 -11.4861 -25.1569
ltibia 59.4434
lfoot -13.2115 -19.7152
ltoes -6.4689
184
root 1.13447 16.015 -18.4754 204.942 154.125 -166.368
lowerback 85.8048 -9.08708 12.1784
upperback 7.66375 2.3216 -2.94919
thorax -10.092 1.91829 -9.03573
lowerneck 3.31427 -7.92295 -4.26187
upperneck 6.43821 -10.4117 1.76799
head 1.80063 -5.12883 1.178
rclavicle 1.59028e-014 -2.38542e-015
rhumerus 67.483 -24.7818 -99.3669
rradius 8.0846
rwrist 46.2374
rhand -52.0976 18.6408
rfingers 7.12502
rthumb -24.6011 -9.79834
lclavicle 1.59028e-014 -2.38542e-015
lhumerus -27.572 -16.9516 94.4142
lradius 63.3431
lwrist 13.7487
lhand -11.2009 -11.4088
lfingers 7.12502
lthumb 14.827 18.0407
rfemur -61.6125 -13.1912 4.11756
rtibia 70.601
rfoot -26.9063 -10.6756
rtoes -17.6083
lfemur -64.2333 -11.4436 -25.325
ltibia 59.6053
lfoot -13.2244 -19.9758
ltoes -6.37029
185
root 1.12729 15.9984 -18.4622 205.009 153.932 -166.202
lowerback 85.9798 -9.1111 12.2345
upperback 7.57795 2.39451 -2.94018
thorax -10.1506 1.94443 -9.0724
lowerneck 3.47918 -8.00543 -4.20757
upperneck 6.40209 -10.5243 1.85875
head 1.76713 -5.18076 1.20344
rclavicle -9.85972e-014 -4.21423e-014
rhumerus 67.7446 -24.4679 -99.3766
rradius 8.07081
rwrist 47.4813
rhand -52.6312 19.8411
rfingers 7.12502
rthumb -25.1124 -8.52744
lclavicle -9.85972e-014 -4.21423e-014
lhumerus -27.6565 -17.0714 94.4741
lradius 63.3315
lwrist 13.8624
lhand -11.2467 -11.198
lfingers 7.12502
lthumb 14.7828 18.2548
rfemur -61.6446 -13.2772 4.00373
rtibia 70.911
rfoot -27.1179 -10.7701
rtoes -17.6434
lfemur -64.2716 -11.3797 -25.5289
ltibia 59.766
lfoot -13.2518 -20.2814
ltoes -6.32042
186
root 1.12002 15.9827 -18.4497 205.088 153.731 -166.035
lowerback 86.1676 -9.12302 12.2914
upperback 7.46553 2.48813 -2.90533
thorax -10.2373 1.97124 -9.08601
lowerneck 3.69691 -8.08608 -4.18979
upperneck 6.32165 -10.6376 1.97053
head 1.71409 -5.23396 1.24473
rclavicle 5.08889e-014 1.10524e-013
rhumerus 68.0089 -24.1556 -99.3283
rradius 8.007
rwrist 48.6694
rhand -53.0176 20.6816
rfingers 7.12502
rthumb -25.4826 -7.6346
lclavicle 5.08889e-014 1.10524e-013
lhumerus -27.7877 -17.1778 94.572
lradius 63.3445
lwrist 13.8977
lhand -11.2554 -10.9595
lfingers 7.12502
lthumb 14.7744 18.4939
rfemur -61.6766 -13.3587 3.88324
rtibia 71.2126
rfoot -27.3488 -10.8309
rtoes -17.6331
lfemur -64.3298 -11.3136 -25.742
ltibia 59.9233
lfoot -13.273 -20.5571
ltoes -6.30796
187
root 1.1139 15.9662 -18.4375 205.187 153.554 -165.826
lowerback 86.3292 -9.13705 12.3316
upperback 7.38214 2.55381 -2.90663
thorax -10.2982 1.99578 -9.12786
lowerneck 3.89816 -8.16567 -3.9924
upperneck 6.21132 -10.7427 2.01145
head 1.63834 -5.28067 1.23511
rclavicle 6.67916e-014 -6.83819e-014
rhumerus 68.3443 -23.8356 -99.3514
rradius 7.88867
rwrist 49.8248
rhand -53.2628 21.075
rfingers 7.12502
rthumb -25.7175 -7.20747
lclavicle 6.67916e-014 -6.83819e-014
lhumerus -27.9046 -17.3012 94.6158
lradius 63.3888
lwrist 13.9548
lhand -11.3055 -10.764
lfingers 7.12502
lthumb 14.7262 18.6929
rfemur -61.7093 -13.4243 3.70823
rtibia 71.5119
rfoot -27.536 -10.9447
rtoes -17.5459
lfemur -64.3796 -11.2656 -25.9857
ltibia 60.0774
lfoot -13.3001 -20.8264
ltoes -6.28188
188
root 1.10697 15.9511 -18.4255 205.257 153.37 -165.656
lowerback 86.53 -9.13457 12.3657
upperback 7.27685 2.63973 -2.89319
thorax -10.3778 2.02324 -9.15714
lowerneck 4.07301 -8.24628 -3.77975
upperneck 6.14439 -10.8449 2.02036
head 1.57807 -5.32557 1.21139
rclavicle -4.45278e-014 2.70347e-014
rhumerus 68.6706 -23.4899 -99.3597
rradius 7.76119
rwrist 51.0513
rhand -53.317 20.9039
rfingers 7.12502
rthumb -25.7694 -7.37098
lclavicle -4.45278e-014 2.70347e-014
lhumerus -28.0211 -17.4064 94.6703
lradius 63.3973
lwrist 13.9776
lhand -11.3926 -10.6154
lfingers 7.12502
lthumb 14.6422 18.8476
rfemur -61.7294 -13.4387 3.55828
rtibia 71.8037
rfoot -27.7472 -11.0704
rtoes -17.5862
lfemur -64.4095 -11.1966 -26.1953
ltibia 60.2221
lfoot -13.2835 -21.121
ltoes -6.07918
